#!OML:ASF E:\motion texture\Top Level 1\Subject 1\Session 1\male.ASF
:FULLY-SPECIFIED
:DEGREES
301
root -10.8422 18.0907 4.28331 583.313 -88.7423 -590.047
lowerback 7.88116 -5.51354 -4.01794
upperback -0.024903 -7.66441 1.64107
thorax -3.66847 -3.73232 4.73186
lowerneck -17.4491 -0.64131 -3.82114
upperneck 14.7573 -0.992995 5.68787
head 7.4529 -0.163213 2.38545
rclavicle -6.81583e-014 -3.97569e-015
rhumerus -60.6589 1.59978 -71.0079
rradius 55.6013
rwrist -5.49104
rhand -10.2482 -21.4082
rfingers 7.12502
rthumb 15.7446 -50.7877
lclavicle -6.81583e-014 -3.97569e-015
lhumerus -4.09241 -9.27461 85.866
lradius 68.498
lwrist 2.10772
lhand -11.0189 2.6934
lfingers 7.12502
lthumb 15.0022 32.1299
rfemur -85.7061 -7.02943 21.571
rtibia 78.1314
rfoot 215.651 7.20778
rtoes 42.7249
lfemur 6.39085 -6.64617 -26.9335
ltibia 17.4944
lfoot 528.108 180.266
ltoes 4.79155
302
root -10.9662 18.0895 4.27071 576.212 -88.8361 -583.111
lowerback 8.03166 -5.57712 -3.90548
upperback 0.0392018 -7.74262 1.72116
thorax -3.68076 -3.77448 4.77293
lowerneck -17.5251 -0.578971 -3.77402
upperneck 14.7633 -0.910165 5.64973
head 7.46324 -0.123168 2.37497
rclavicle -1.99779e-014 -9.54166e-015
rhumerus -61.191 1.91222 -70.9244
rradius 55.9917
rwrist -5.9789
rhand -10.616 -23.9468
rfingers 7.12502
rthumb 15.3904 -53.3539
lclavicle -1.99779e-014 -9.54166e-015
lhumerus -3.57506 -9.18517 85.5551
lradius 68.6277
lwrist 2.20588
lhand -10.9397 2.71542
lfingers 7.12502
lthumb 15.0786 32.1462
rfemur -86.395 -6.71959 22.0213
rtibia 78.9791
rfoot 216.674 7.73198
rtoes 43.3959
lfemur 7.02259 -6.71482 -26.805
ltibia 17.5192
lfoot 527.886 180.297
ltoes 4.35653
303
root -11.0895 18.0868 4.25735 569.797 -88.8782 -576.831
lowerback 8.15048 -5.63356 -3.83509
upperback 0.0980823 -7.81444 1.77946
thorax -3.67905 -3.81312 4.81071
lowerneck -17.6026 -0.519828 -3.71413
upperneck 14.779 -0.835526 5.61087
head 7.47751 -0.0864177 2.36138
rclavicle 4.50744e-014 3.18055e-015
rhumerus -61.5679 1.9881 -70.5126
rradius 55.8702
rwrist -5.42952
rhand -9.6743 -22.8257
rfingers 7.12502
rthumb 16.2973 -52.1609
lclavicle 4.50744e-014 3.18055e-015
lhumerus -3.17085 -9.07419 85.2607
lradius 68.7789
lwrist 2.41933
lhand -10.8631 2.72884
lfingers 7.12502
lthumb 15.1524 32.1541
rfemur -86.9307 -6.42787 22.4197
rtibia 79.7973
rfoot 217.543 8.40132
rtoes 43.9434
lfemur 7.56619 -6.696 -26.6696
ltibia 17.6151
lfoot 527.684 180.189
ltoes 3.88757
304
root -11.2119 18.0833 4.24361 565.852 -88.8752 -572.982
lowerback 8.23698 -5.68507 -3.81838
upperback 0.144254 -7.88411 1.81178
thorax -3.66933 -3.84969 4.84787
lowerneck -17.6836 -0.461709 -3.64559
upperneck 14.8102 -0.766062 5.57535
head 7.49783 -0.0513356 2.34712
rclavicle -9.16894e-015 -7.95139e-016
rhumerus -61.7955 1.85477 -69.7997
rradius 55.2708
rwrist -4.01585
rhand -7.67976 -18.3212
rfingers 7.12502
rthumb 18.217 -47.4882
lclavicle -9.16894e-015 -7.95139e-016
lhumerus -2.88129 -8.94716 84.9799
lradius 68.9513
lwrist 2.67494
lhand -10.7864 2.74066
lfingers 7.12502
lthumb 15.2262 32.1603
rfemur -87.3269 -6.16771 22.7453
rtibia 80.6873
rfoot 218.251 0.581748
rtoes 44.377
lfemur 8.021 -6.6184 -26.5582
ltibia 17.7683
lfoot 527.511 179.96
ltoes 3.36417
305
root -11.3334 18.0795 4.22997 565.125 -88.8376 -572.307
lowerback 8.29001 -5.73299 -3.85494
upperback 0.174327 -7.95345 1.81615
thorax -3.65459 -3.88492 4.88227
lowerneck -17.7633 -0.404364 -3.5558
upperneck 14.849 -0.700412 5.52222
head 7.52056 -0.0185856 2.32321
rclavicle 5.49143e-014 1.19271e-014
rhumerus -61.9074 1.62255 -68.9818
rradius 54.3955
rwrist -2.43835
rhand -5.65229 -12.0446
rfingers 7.12502
rthumb 20.1666 -41.0178
lclavicle 5.49143e-014 1.19271e-014
lhumerus -2.69428 -8.80985 84.7075
lradius 69.1319
lwrist 2.89493
lhand -10.7106 2.75035
lfingers 7.12502
lthumb 15.2993 32.1645
rfemur -87.5911 -5.94683 22.9876
rtibia 81.7181
rfoot 218.84 -7.28755
rtoes 44.6966
lfemur 8.393 -6.51503 -26.494
ltibia 17.9637
lfoot 527.372 179.633
ltoes 2.81107
306
root -11.4542 18.0761 4.21695 567.744 -88.7647 -574.936
lowerback 8.30828 -5.77748 -3.94937
upperback 0.188044 -8.02301 1.79383
thorax -3.63345 -3.91903 4.91752
lowerneck -17.8438 -0.346384 -3.45616
upperneck 14.8926 -0.634425 5.4567
head 7.54505 0.0137084 2.2937
rclavicle 5.26034e-014 -6.36111e-015
rhumerus -61.9443 1.43263 -68.318
rradius 53.6302
rwrist -1.19177
rhand -4.2557 -7.04366
rfingers 7.12502
rthumb 21.5084 -35.8695
lclavicle 5.26034e-014 -6.36111e-015
lhumerus -2.60068 -8.65946 84.4489
lradius 69.31
lwrist 3.02557
lhand -10.641 2.74879
lfingers 7.12502
lthumb 15.3663 32.1578
rfemur -87.728 -5.77139 23.1332
rtibia 82.8391
rfoot 219.317 -15.2569
rtoes 44.9019
lfemur 8.70567 -6.42019 -26.5091
ltibia 18.1648
lfoot 527.277 179.251
ltoes 2.21006
307
root -11.5744 18.0733 4.20487 572.508 -88.6516 -579.666
lowerback 8.29401 -5.81835 -4.08698
upperback 0.188479 -8.09111 1.74916
thorax -3.60542 -3.95156 4.94987
lowerneck -17.9376 -0.288678 -3.35029
upperneck 14.929 -0.566777 5.37596
head 7.56943 0.0459116 2.25835
rclavicle -1.29086e-013 2.06736e-014
rhumerus -61.9306 1.37529 -67.9879
rradius 53.159
rwrist -0.627917
rhand -3.82258 -4.37655
rfingers 7.12502
rthumb 21.9243 -33.1543
lclavicle -1.29086e-013 2.06736e-014
lhumerus -2.5787 -8.49796 84.204
lradius 69.475
lwrist 3.04978
lhand -10.5794 2.74986
lfingers 7.12502
lthumb 15.4257 32.1543
rfemur -87.7413 -5.63815 23.1931
rtibia 84.0016
rfoot 219.695 -23.3558
rtoes 44.9418
lfemur 8.9677 -6.34236 -26.601
ltibia 18.3607
lfoot 527.221 178.838
ltoes 1.59725
308
root -11.6944 18.0712 4.19384 577.746 -88.4971 -584.829
lowerback 8.23934 -5.85334 -4.24744
upperback 0.174996 -8.15215 1.69079
thorax -3.5689 -3.98015 4.97574
lowerneck -18.0147 -0.231976 -3.24515
upperneck 14.9482 -0.497507 5.28221
head 7.58527 0.0773255 2.21868
rclavicle -2.68359e-015 -1.59028e-015
rhumerus -61.8896 1.46068 -68.002
rradius 53.0069
rwrist -0.76546
rhand -4.22482 -3.90096
rfingers 7.12502
rthumb 21.5381 -32.7234
lclavicle -2.68359e-015 -1.59028e-015
lhumerus -2.62438 -8.3287 83.9871
lradius 69.6102
lwrist 2.98697
lhand -10.5414 2.74027
lfingers 7.12502
lthumb 15.4622 32.1419
rfemur -87.6296 -5.53781 23.1907
rtibia 85.1595
rfoot 220.025 -31.5581
rtoes 44.7945
lfemur 9.1972 -6.28161 -26.7505
ltibia 18.5319
lfoot 527.198 178.42
ltoes 0.975914
309
root -11.8146 18.0699 4.18372 582.154 -88.3107 -589.12
lowerback 8.14033 -5.8801 -4.40686
upperback 0.147512 -8.20012 1.63004
thorax -3.52411 -4.00223 4.99286
lowerneck -18.064 -0.178378 -3.15383
upperneck 14.9426 -0.427249 5.18237
head 7.58824 0.1074 2.17891
rclavicle 2.85504e-014 -2.14687e-014
rhumerus -61.8259 1.64945 -68.2826
rradius 53.1609
rwrist -1.4001
rhand -5.17264 -5.36122
rfingers 7.12502
rthumb 20.6275 -34.2851
lclavicle 2.85504e-014 -2.14687e-014
lhumerus -2.73257 -8.15325 83.8113
lradius 69.713
lwrist 2.87499
lhand -10.5291 2.719
lfingers 7.12502
lthumb 15.4741 32.1197
rfemur -87.3962 -5.4568 23.1571
rtibia 86.2699
rfoot 220.385 -39.8485
rtoes 44.4433
lfemur 9.39852 -6.22942 -26.9252
ltibia 18.6741
lfoot 527.196 178.016
ltoes 0.362476
310
root -11.9355 18.0694 4.17434 584.927 -88.1134 -591.738
lowerback 7.99419 -5.89629 -4.53604
upperback 0.111459 -8.22855 1.57826
thorax -3.46698 -4.01538 4.99586
lowerneck -18.0996 -0.129416 -3.08498
upperneck 14.9197 -0.357791 5.08717
head 7.58331 0.136045 2.14401
rclavicle -4.43787e-014 9.54166e-015
rhumerus -61.7196 1.83375 -68.6265
rradius 53.3825
rwrist -2.24213
rhand -6.33366 -7.08439
rfingers 7.12502
rthumb 19.5116 -36.1254
lclavicle -4.43787e-014 9.54166e-015
lhumerus -2.89182 -7.97571 83.682
lradius 69.7815
lwrist 2.77397
lhand -10.5312 2.70334
lfingers 7.12502
lthumb 15.4721 32.1042
rfemur -87.0396 -5.37857 23.129
rtibia 87.2891
rfoot 220.897 -48.2223
rtoes 43.8793
lfemur 9.58079 -6.17566 -27.0842
ltibia 18.7819
lfoot 527.208 177.639
ltoes -0.231117
311
root -12.0573 18.0693 4.16527 585.834 -87.9273 -592.449
lowerback 7.79458 -5.89851 -4.60947
upperback 0.0686006 -8.23008 1.54309
thorax -3.39547 -4.01646 4.97743
lowerneck -18.1216 -0.0889458 -3.03377
upperneck 14.8786 -0.294998 4.99309
head 7.57047 0.160415 2.1113
rclavicle -6.53505e-015 -2.78299e-014
rhumerus -61.5534 1.89898 -68.8302
rradius 53.5255
rwrist -2.75318
rhand -7.03012 -8.06044
rfingers 7.12502
rthumb 18.8419 -37.1679
lclavicle -6.53505e-015 -2.78299e-014
lhumerus -3.09177 -7.80642 83.5993
lradius 69.8158
lwrist 2.71864
lhand -10.5442 2.7006
lfingers 7.12502
lthumb 15.4596 32.1024
rfemur -86.5664 -5.28692 23.1383
rtibia 88.1733
rfoot 221.781 -56.6875
rtoes 43.1222
lfemur 9.74182 -6.11092 -27.1882
ltibia 18.8555
lfoot 527.225 177.302
ltoes -0.8092
312
root -12.1798 18.0695 4.15593 585.303 -87.7721 -591.676
lowerback 7.54575 -5.88994 -4.62139
upperback 0.0140534 -8.20871 1.53083
thorax -3.31642 -4.00715 4.94243
lowerneck -18.134 -0.0573796 -3.00068
upperneck 14.8314 -0.240776 4.90522
head 7.55442 0.180125 2.08251
rclavicle 3.80673e-014 -1.03368e-014
rhumerus -61.336 1.82819 -68.8516
rradius 53.5589
rwrist -2.7767
rhand -7.08383 -8.06969
rfingers 7.12502
rthumb 18.7902 -37.1821
lclavicle 3.80673e-014 -1.03368e-014
lhumerus -3.33797 -7.64816 83.5649
lradius 69.8224
lwrist 2.73266
lhand -10.5561 2.71561
lfingers 7.12502
lthumb 15.4481 32.1183
rfemur -85.9859 -5.18444 23.1982
rtibia 88.8763
rfoot 223.519 -65.2549
rtoes 42.2047
lfemur 9.8664 -6.03053 -27.2117
ltibia 18.9121
lfoot 527.237 176.994
ltoes -1.3868
313
root -12.3031 18.0698 4.1462 583.683 -87.6465 -589.77
lowerback 7.25461 -5.869 -4.57545
upperback -0.0550074 -8.16354 1.53939
thorax -3.23642 -3.98657 4.8919
lowerneck -18.1386 -0.0359518 -2.9806
upperneck 14.7866 -0.199097 4.82636
head 7.53847 0.193856 2.05739
rclavicle -7.26558e-014 2.38542e-015
rhumerus -61.1091 1.73191 -68.89
rradius 53.6381
rwrist -2.81279
rhand -7.1468 -8.07733
rfingers 7.12502
rthumb 18.7296 -37.1956
lclavicle -7.26558e-014 2.38542e-015
lhumerus -3.63154 -7.51254 83.5749
lradius 69.8054
lwrist 2.81098
lhand -10.5564 2.75026
lfingers 7.12502
lthumb 15.4477 32.153
rfemur -85.304 -5.0733 23.3043
rtibia 89.3514
rfoot 227.547 -73.892
rtoes 41.1807
lfemur 9.95399 -5.93799 -27.1595
ltibia 18.956
lfoot 527.247 176.714
ltoes -1.94913
314
root -12.4268 18.07 4.13605 581.657 -87.5419 -587.419
lowerback 6.93368 -5.83872 -4.49727
upperback -0.143477 -8.10202 1.56516
thorax -3.16356 -3.9576 4.8387
lowerneck -18.1316 -0.0240507 -2.97198
upperneck 14.7512 -0.169291 4.75324
head 7.52417 0.201651 2.0347
rclavicle -2.07233e-014 -2.38542e-015
rhumerus -60.8816 1.62885 -68.9495
rradius 53.7605
rwrist -2.83826
rhand -7.22555 -8.09086
rfingers 7.12502
rthumb 18.6539 -37.2165
lclavicle -2.07233e-014 -2.38542e-015
lhumerus -3.98158 -7.39708 83.6295
lradius 69.7705
lwrist 2.93208
lhand -10.5429 2.79866
lfingers 7.12502
lthumb 15.4608 32.2004
rfemur -84.5235 -4.97088 23.427
rtibia 89.5546
rfoot 241.717 -82.2922
rtoes 40.1444
lfemur 10.015 -5.84694 -27.0644
ltibia 18.9773
lfoot 527.258 176.467
ltoes -2.51483
315
root -12.5509 18.0701 4.1254 579.839 -87.4467 -585.24
lowerback 6.59314 -5.80101 -4.41246
upperback -0.253472 -8.02987 1.59754
thorax -3.10297 -3.92249 4.78772
lowerneck -18.1203 -0.0209026 -2.97136
upperneck 14.7336 -0.152626 4.69224
head 7.51561 0.20379 2.01602
rclavicle -5.17834e-014 -1.35174e-014
rhumerus -60.6557 1.52844 -69.041
rradius 53.9247
rwrist -2.83526
rhand -7.31407 -8.13562
rfingers 7.12502
rthumb 18.5687 -37.2694
lclavicle -5.17834e-014 -1.35174e-014
lhumerus -4.38489 -7.31506 83.7147
lradius 69.7208
lwrist 3.07376
lhand -10.5178 2.85499
lfingers 7.12502
lthumb 15.485 32.2548
rfemur -83.6541 -4.8916 23.5315
rtibia 89.4499
rfoot 334.45 -85.9256
rtoes 39.1509
lfemur 10.0498 -5.76496 -26.9612
ltibia 18.9784
lfoot 527.274 176.251
ltoes -3.08217
